<svg width="16" height="18" viewBox="0 0 16 18" fill="none" xmlns="http://www.w3.org/2000/svg">
<path d="M12.375 18H3.375C1.47656 18 0 16.5234 0 14.625V12.0938C0 11.6367 0.351562 11.25 0.84375 11.25C1.30078 11.25 1.6875 11.6367 1.6875 12.0938V14.625C1.6875 15.5742 2.42578 16.3125 3.375 16.3125H12.375C13.2891 16.3125 14.0625 15.5742 14.0625 14.625V12.0938C14.0625 11.6367 14.4141 11.25 14.9062 11.25C15.3633 11.25 15.75 11.6367 15.75 12.0938V14.625C15.75 16.4883 14.2383 18 12.375 18ZM8.4375 12.1641L13.2188 7.66406C13.5703 7.34766 13.5703 6.82031 13.2539 6.46875C12.9375 6.11719 12.4102 6.11719 12.0586 6.43359L8.71875 9.59766V0.84375C8.71875 0.386719 8.33203 0 7.875 0C7.38281 0 7.03125 0.386719 7.03125 0.84375V9.59766L3.65625 6.43359C3.30469 6.11719 2.77734 6.11719 2.46094 6.46875C2.32031 6.64453 2.25 6.85547 2.25 7.03125C2.25 7.27734 2.32031 7.48828 2.49609 7.66406L7.27734 12.1641C7.59375 12.4805 8.12109 12.4805 8.4375 12.1641Z" fill="white"/>
</svg>
