<svg width="50" height="50" viewBox="0 0 50 50" fill="none" xmlns="http://www.w3.org/2000/svg">
<rect x="0.5" y="0.5" width="49" height="49" stroke="#EBEBF0"/>
<path d="M27.1484 23.8008C27.1836 24.1523 27.2539 24.4688 27.2539 24.9258C27.2539 28.793 24.6523 31.5 20.75 31.5C17.0234 31.5 14 28.5117 14 24.75C14 21.0234 17.0234 18 20.75 18C22.5781 18 24.0898 18.668 25.2852 19.793L23.457 21.5508C22.9648 21.0586 22.0859 20.4961 20.75 20.4961C18.4648 20.4961 16.5664 22.3945 16.5664 24.75C16.5664 27.1406 18.4648 29.0391 20.75 29.0391C23.4219 29.0391 24.4414 27.1055 24.582 26.1211H20.75V23.8008H27.1484ZM33.6523 24.0117V22.0781H31.6836V24.0117H29.7148V25.9805H31.6836V27.9492H33.6523V25.9805H35.6211V24.0117H33.6523Z" fill="#5C8EE6"/>
</svg>
