<svg width="50" height="50" viewBox="0 0 50 50" fill="none" xmlns="http://www.w3.org/2000/svg">
<rect x="0.5" y="0.5" width="49" height="49" stroke="#EBEBF0"/>
<path d="M32.1367 21.6211C32.1367 21.7969 32.1367 21.9375 32.1367 22.1133C32.1367 27 28.4453 32.5898 21.6602 32.5898C19.5508 32.5898 17.6172 31.9922 16 30.9375C16.2812 30.9727 16.5625 31.0078 16.8789 31.0078C18.6016 31.0078 20.1836 30.4102 21.4492 29.4258C19.832 29.3906 18.4609 28.3359 18.0039 26.8594C18.25 26.8945 18.4609 26.9297 18.707 26.9297C19.0234 26.9297 19.375 26.8594 19.6562 26.7891C17.9688 26.4375 16.7031 24.9609 16.7031 23.168V23.1328C17.1953 23.4141 17.793 23.5547 18.3906 23.5898C17.3711 22.9219 16.7383 21.7969 16.7383 20.5312C16.7383 19.8281 16.9141 19.1953 17.2305 18.668C19.0586 20.8828 21.8008 22.3594 24.8594 22.5352C24.7891 22.2539 24.7539 21.9727 24.7539 21.6914C24.7539 19.6523 26.4062 18 28.4453 18C29.5 18 30.4492 18.4219 31.1523 19.1602C31.9609 18.9844 32.7695 18.668 33.4727 18.2461C33.1914 19.125 32.6289 19.8281 31.8555 20.2852C32.5938 20.2148 33.332 20.0039 33.9648 19.7227C33.4727 20.4609 32.8398 21.0938 32.1367 21.6211Z" fill="#5C8EE6"/>
</svg>
